<?xml version="1.0" encoding="UTF-8"?>
<svg id="_图层_1" data-name="图层_1" xmlns="http://www.w3.org/2000/svg" version="1.1" viewBox="0 0 445 70">
  <!-- Generator: Adobe Illustrator 30.2.1, SVG Export Plug-In . SVG Version: 2.1.1 Build 1)  -->
  <defs>
    <style>
      .st0 {
        fill: #fff;
      }
    </style>
  </defs>
  <path class="st0" d="M17,1.7c11.6,9.1,21.4,20.2,29,32.6l7.6-7.2c3.6-3.4,7.9-6,12.6-7.8-2.1-6.9-5-12.6-9.8-18.3-.3-.3-.6-.6-1-.8-.4-.2-.9-.3-1.3-.3H17.6c-.2,0-.4,0-.6.2-.2.1-.3.3-.4.5,0,.2,0,.4,0,.6,0,.2.2.4.3.5h0Z"/>
  <path class="st0" d="M38.5,45.7c5.6,2.3,11.2,4.3,17.1,5.8,10.4,2.7,20.3-1.2,25.2-10.1l5.9-11.3c1.3-2.7,3-5.3,5-7.6-5.7-2-12-2.4-17.9-1.2-6,1.2-11.5,4-15.8,8.1l-9,8.5c-3.2,3-6.7,5.4-10.4,7.7Z"/>
  <path class="st0" d="M1.7,23.7c-.1-.1-.3-.2-.5-.3-.2,0-.4,0-.6,0-.2,0-.3.2-.5.4-.1.2-.2.3-.2.5v34c0,.5.1.9.4,1.4.2.4.6.8,1,1,9.3,5.9,17.3,9.1,28.5,9.3,11.2.2,22.1-2.8,31.6-8.4,3.5-2.1,4.2-3,7.1-5.7-5.4,1.4-10.3,1-15.5-.3C31.1,49.9,17.7,38.4,1.7,23.7Z"/>
  <path class="st0" d="M180.2,27c-2.3-1.9-5.5-2.8-9.8-2.8s-8.5.9-12.8,4.4c-.2.2-.2.5,0,.7l3.9,3.9c.2.2.4.2.6,0,3.4-2,5.6-2.7,8-2.7s4.9,1.6,4.9,4.8v1.4l-5.5.2c-4.7.2-8.3,1.1-10.7,2.7-2.4,1.6-3.5,4.1-3.5,7.4s.9,5.7,2.6,7.4c1.7,1.7,4.1,2.6,7.2,2.6s4.5-.4,6-1.1c1.3-.6,2.6-1.6,3.8-3v3.1c0,.3.2.5.5.5h7.7c.3,0,.5-.2.5-.5v-20.7c0-3.8-1.1-6.6-3.4-8.5h0ZM173.2,49.1c-1.2,1.2-2.8,1.7-4.8,1.7s-4.2-1.2-4.2-3.7.6-3,1.8-3.8c1.2-.8,3.1-1.3,5.6-1.4h3.3c0-.1,0,2.5,0,2.5,0,1.9-.6,3.4-1.8,4.6Z"/>
  <path class="st0" d="M244.6,55.8l-10.6-15.2h0s0,0,0,0l10.1-15.2c.2-.3,0-.7-.4-.7h-8.9c-.5,0-.9.2-1.2.6l-8.8,13.2V12.7c0-.3-.2-.5-.5-.5h-7.7c-.3,0-.5.2-.5.5v43.4c0,.3.2.5.5.5h7.7c.3,0,.5-.2.5-.5v-13.5l9.4,13.4c.3.4.7.6,1.2.6h8.9c.4,0,.6-.4.4-.7h0Z"/>
  <path class="st0" d="M150.2,56.6h-26.2c-1.1,0-2-.9-2-2V12.8c0-.3.2-.5.5-.5h7.7c.3,0,.5.2.5.5v35.1h19.4c.3,0,.5.2.5.5v7.7c0,.3-.2.5-.5.5h0Z"/>
  <path class="st0" d="M211.4,24.6c-6.5-1.3-10.9,1-13.5,4.6v-3.9c0-.3-.2-.5-.5-.5h-7.7c-.3,0-.5.2-.5.5v30.8c0,.3.2.5.5.5h7.7c.3,0,.5-.2.5-.5v-16.9c0-.6,0-1.2.2-1.8,1.4-5.1,7.9-6.2,13.1-5.2.3,0,.6-.2.6-.5v-6.7c0-.2-.2-.4-.4-.5h0Z"/>
  <path class="st0" d="M275.8,56.9h-10.8c-1.1,0-2-.9-2-2V14.2c0-1.1.9-2,2-2h11.2c12.4,0,22.5,10.2,22.3,22.7-.2,12.3-10.4,22-22.7,22ZM271.8,48h4.4c7.5,0,13.5-6.1,13.5-13.5s-6.1-13.5-13.5-13.5h-4.4v27.1Z"/>
  <path class="st0" d="M318.6,56.7c-5.1,0-9-1.4-11.9-4.2-2.8-2.8-4.3-6.8-4.3-12s1.3-9.4,3.9-12.4c2.6-2.9,6.3-4.4,10.9-4.4s7.9,1.3,10.4,3.8c2.5,2.6,3.6,6.1,3.6,10.6v4.2h-20.2c0,2.5.8,3.7,2.2,5.1,3.3,3.4,10.5,2.2,13.6-.2.2-.1.4-.1.6,0l3.8,3.8c.2.2.2.5,0,.7-3.3,3.2-7.5,4.8-12.7,4.8h0ZM317.4,30c-1.8,0-3.2.6-4.3,1.7-1,1.2-1.6,2.8-1.8,5h12c0-2.1-.6-3.8-1.7-5-1.1-1.2-2.5-1.7-4.3-1.7Z"/>
  <path class="st0" d="M345.2,32.9c0-3.8,7.2-3.8,12,0,.2.1.5.1.6,0l4-4c.2-.2.2-.5,0-.7-3.2-2.4-7.5-4.4-12.8-4.4-6.3,0-12.4,2.7-12.4,9.5,0,9,10,7.9,15.9,11.3,4.7,3.1-4,8.2-11.8,2-.2-.2-.5-.1-.6,0l-4.6,4.6c-.2.2-.2.5,0,.7,7.8,7.6,27.2,5.8,27.2-5.8s-17.4-8.3-17.4-13.2h0Z"/>
  <path class="st0" d="M376.5,24.9h-8.1c-.1,0-.2.1-.2.2v31.3c0,.1.1.2.2.2h8.1c.1,0,.2-.1.2-.2v-31.3c0-.1-.1-.2-.2-.2Z"/>
  <path class="st0" d="M372.5,21.5c2.6,0,4.8-2.1,4.8-4.8s-2.1-4.8-4.8-4.8-4.8,2.1-4.8,4.8,2.1,4.8,4.8,4.8Z"/>
  <path class="st0" d="M401.1,24.8v2.4c-2.1-2.1-4.7-3.4-7.6-3.4-6.9,0-12.5,7.3-12.5,16.4s5.6,16.4,12.5,16.4,5.5-1.3,7.6-3.4v.3c0,5.9-2,9.1-8,9.1,0,0-5.1-.1-10.2-2.2-.3-.1-.7,0-.7.4v6.6c0,.2.1.4.3.4,9.3,3.9,27,3,27.1-12.9v-30.2c0-.3-.2-.5-.5-.5h-7.6c-.3,0-.5.2-.5.5h0ZM395,49.2c-3.4,0-6.2-4.1-6.2-9.1s2.8-9.1,6.2-9.1,6.2,4.1,6.2,9.1-2.8,9.1-6.2,9.1Z"/>
  <path class="st0" d="M444.7,37.7c0-10-6-13.9-12.5-13.9s-6.1,1.6-8,4.2v-3.1c0-.3-.2-.5-.5-.5h-7.7c-.3,0-.5.2-.5.5v31.3c0,.3.2.5.5.5h7.7c.3,0,.5-.2.5-.5v-19.3c.3-3.4,2.7-6,5.8-6s6.2,3,6.2,6.8v18.5c0,.3.2.5.5.5h7.6c.3,0,.5-.2.5-.5,0-2.9,0-18.4,0-18.4h0Z"/>
</svg>