<?xml version="1.0" encoding="UTF-8"?>
<svg id="_图层_1" xmlns="http://www.w3.org/2000/svg" version="1.1" viewBox="0 0 91.7 70">
  <!-- Generator: Adobe Illustrator 30.2.1, SVG Export Plug-In . SVG Version: 2.1.1 Build 1)  -->
  <defs>
    <style>
      .st0 {
        fill: #fff;
      }
    </style>
  </defs>
  <path class="st0" d="M17,1.7c11.6,9.1,21.4,20.2,29,32.6l7.6-7.2c3.6-3.4,7.9-6,12.6-7.8-2.1-6.9-5-12.6-9.8-18.3-.3-.3-.6-.6-1-.8C55,0,54.5-.1,54.1-.1H17.6c-.2,0-.4,0-.6.2-.2.1-.3.3-.4.5v.6c0,.2.2.4.3.5h.1Z"/>
  <path class="st0" d="M38.5,45.7c5.6,2.3,11.2,4.3,17.1,5.8,10.4,2.7,20.3-1.2,25.2-10.1l5.9-11.3c1.3-2.7,3-5.3,5-7.6-5.7-2-12-2.4-17.9-1.2-6,1.2-11.5,4-15.8,8.1l-9,8.5c-3.2,3-6.7,5.4-10.4,7.7h-.1Z"/>
  <path class="st0" d="M1.7,23.7c-.1-.1-.3-.2-.5-.3h-.6c-.2,0-.3.2-.5.4C0,24,0,24.1,0,24.3v34C0,58.8,0,59.2.3,59.7c.2.4.6.8,1,1,9.3,5.9,17.3,9.1,28.5,9.3,11.2.2,22.1-2.8,31.6-8.4,3.5-2.1,4.2-3,7.1-5.7-5.4,1.4-10.3,1-15.5-.3C31.1,49.9,17.7,38.4,1.7,23.7Z"/>
</svg>